<?xml version="1.0" standalone="no"?>
<!DOCTYPE svg PUBLIC "-//W3C//DTD SVG 20010904//EN"
 "http://www.w3.org/TR/2001/REC-SVG-20010904/DTD/svg10.dtd">
<svg version="1.0" xmlns="http://www.w3.org/2000/svg"
 width="1000.000000pt" height="1000.000000pt" viewBox="0 0 1000.000000 1000.000000"
 preserveAspectRatio="xMidYMid meet">
<metadata>
Created by potrace 1.14, written by Peter Selinger 2001-2017
</metadata>
<g transform="translate(0.000000,1000.000000) scale(0.100000,-0.100000)"
fill="#000000" stroke="none">
<path d="M47 9968 l-47 -33 0 -4967 0 -4968 5000 0 5000 0 0 5000 0 5000
-4953 0 -4953 0 -47 -32z m6150 -1795 l63 -38 0 -92 c0 -60 4 -93 11 -93 6 0
41 18 79 40 38 22 76 40 84 40 12 0 98 -46 125 -67 2 -1 5 -41 6 -88 1 -46 5
-88 9 -92 4 -5 43 11 86 35 l79 42 58 -35 58 -35 5 -92 c6 -109 6 -109 109
-48 72 43 68 43 164 -17 l37 -23 0 -984 0 -985 -97 -57 c-143 -84 -254 -148
-473 -274 -107 -62 -224 -129 -260 -150 -122 -71 -385 -223 -545 -315 -88 -50
-252 -145 -365 -210 -113 -65 -209 -118 -215 -118 -5 0 -45 21 -88 46 -43 26
-85 47 -92 47 -7 0 -55 -71 -105 -157 l-91 -158 -296 -170 c-163 -93 -312
-179 -330 -190 l-34 -20 -64 35 c-37 20 -66 43 -69 55 -3 11 -6 55 -6 98 0 42
-4 77 -8 77 -4 0 -37 -16 -72 -35 -36 -19 -71 -35 -77 -35 -10 0 -13 199 -13
963 0 529 -4 967 -8 973 -9 14 -95 64 -110 64 -9 0 -13 -221 -14 -876 l-3
-876 -79 -45 -80 -46 -60 33 c-34 19 -64 38 -68 44 -4 6 -8 47 -8 92 0 44 -3
84 -7 87 -3 4 -42 -12 -85 -35 -78 -42 -79 -42 -106 -25 -15 10 -41 25 -59 34
-17 9 -34 25 -37 37 -3 12 -6 456 -6 987 l0 965 288 166 c158 91 306 176 328
189 l42 23 53 -29 c30 -15 68 -39 86 -53 18 -13 37 -22 43 -20 5 1 52 75 103
162 83 144 97 163 140 188 40 24 349 202 577 333 30 17 127 73 215 124 174
102 194 113 293 170 84 47 411 236 642 370 96 55 177 101 179 101 3 0 33 -17
68 -37z m-1883 -4854 c79 -30 109 -73 114 -159 3 -60 1 -68 -27 -107 -17 -24
-31 -47 -31 -51 0 -5 13 -18 30 -30 42 -32 62 -85 58 -153 -5 -68 -31 -108
-96 -146 -42 -25 -57 -28 -133 -28 -78 1 -94 4 -152 34 -36 18 -77 46 -92 61
l-27 29 37 33 c60 52 73 60 81 47 16 -27 99 -69 137 -69 90 0 138 70 84 124
-16 16 -41 25 -80 30 l-57 7 0 48 c0 48 0 48 38 55 60 9 92 40 92 86 0 89
-112 96 -201 13 l-26 -24 -48 44 c-57 51 -56 63 10 109 93 66 195 83 289 47z
m2217 -4 c40 -13 81 -32 90 -42 17 -17 15 -20 -27 -67 l-45 -49 -50 23 c-62
30 -130 30 -186 1 -140 -71 -149 -287 -16 -372 76 -48 166 -40 255 23 14 10
24 5 61 -28 25 -21 46 -44 46 -50 2 -18 -42 -52 -104 -80 -51 -24 -73 -28
-150 -28 -81 0 -97 3 -157 32 -130 63 -197 184 -185 336 8 97 29 153 82 213
91 104 239 138 386 88z m-5172 -87 c11 -51 30 -138 42 -193 30 -141 48 -167
63 -93 3 18 24 111 47 206 l42 172 68 0 68 0 10 -37 c6 -21 26 -108 46 -193
20 -85 40 -161 44 -169 12 -24 26 -13 33 26 4 21 19 88 33 148 13 61 29 136
35 168 l11 57 78 0 78 0 -23 -102 c-14 -57 -35 -150 -48 -208 -14 -58 -34
-145 -45 -195 -12 -49 -26 -107 -32 -128 l-10 -38 -86 3 -87 3 -46 189 c-26
105 -52 192 -58 194 -6 2 -16 -16 -22 -40 -6 -24 -13 -49 -16 -57 -2 -7 -15
-63 -29 -125 -39 -172 -32 -163 -125 -164 -68 -1 -81 1 -90 17 -5 11 -30 108
-55 218 -25 109 -56 246 -70 304 -14 58 -25 111 -25 117 0 8 24 12 74 12 l74
0 21 -92z m1471 27 l0 -65 -162 -2 -163 -3 0 -55 0 -55 133 -3 132 -3 0 -64 0
-65 -122 0 c-68 0 -129 -4 -136 -9 -9 -5 -12 -27 -10 -72 l3 -64 163 -3 162
-2 0 -70 0 -70 -235 0 -235 0 0 335 0 335 235 0 235 0 0 -65z m706 46 c56 -25
86 -75 86 -144 1 -56 -11 -87 -45 -124 l-20 -22 41 -45 c48 -52 56 -76 50
-154 -5 -70 -27 -104 -88 -134 -41 -21 -62 -23 -222 -26 l-178 -4 0 336 0 336
168 0 c141 0 173 -3 208 -19z m1764 -46 l0 -64 -97 -3 -98 -3 -5 -265 c-3
-146 -7 -266 -8 -268 -1 -2 -32 -2 -69 0 l-68 3 -5 265 -5 265 -97 3 -98 3 0
64 0 65 275 0 275 0 0 -65z m438 -267 l-3 -333 -67 -3 -68 -3 0 336 0 335 70
0 70 0 -2 -332z m1374 205 c2 -91 6 -128 15 -128 6 0 55 57 108 128 l97 127
79 0 c43 0 79 -4 79 -8 0 -4 -52 -73 -115 -152 -63 -79 -115 -148 -115 -152 0
-4 13 -22 28 -40 35 -41 226 -289 236 -305 5 -10 -13 -12 -79 -10 -98 2 -88
-5 -200 145 -33 45 -68 81 -77 82 -35 0 -57 -51 -60 -141 l-3 -84 -67 -3 -68
-3 0 336 0 335 70 0 69 0 3 -127z m1188 62 l0 -65 -162 -2 -163 -3 0 -55 0
-55 133 -3 132 -3 0 -64 0 -64 -132 -3 -133 -3 0 -70 0 -70 163 -3 162 -2 0
-70 0 -70 -234 0 c-196 0 -235 2 -239 15 -8 18 -7 578 0 623 l5 32 234 0 234
0 0 -65z m820 0 l0 -65 -94 0 c-76 0 -95 -3 -100 -16 -3 -9 -6 -130 -6 -270
l0 -254 -70 0 -70 0 -2 268 -3 267 -100 5 -100 5 -3 49 c-2 27 -1 55 2 62 4
11 55 14 276 14 l270 0 0 -65z"/>
<path d="M6575 6937 c-16 -13 -15 -14 13 -9 18 2 29 8 26 13 -7 12 -17 11 -39
-4z"/>
<path d="M6370 6820 c-9 -6 -10 -10 -3 -10 6 0 15 5 18 10 8 12 4 12 -15 0z"/>
<path d="M6845 6780 c-13 -5 -14 -9 -5 -9 8 0 24 4 35 9 13 5 14 9 5 9 -8 0
-24 -4 -35 -9z"/>
<path d="M6768 6753 c7 -3 16 -2 19 1 4 3 -2 6 -13 5 -11 0 -14 -3 -6 -6z"/>
<path d="M5980 6595 c-14 -8 -20 -14 -14 -15 5 0 19 7 30 15 24 18 16 19 -16
0z"/>
<path d="M5751 6333 c-1 -6 -4 -20 -7 -30 -5 -17 -5 -17 6 0 6 10 9 23 6 30
-3 9 -5 9 -5 0z"/>
<path d="M5695 6209 c-4 -6 -5 -12 -2 -15 2 -3 7 2 10 11 7 17 1 20 -8 4z"/>
<path d="M6855 6110 c-3 -6 1 -7 9 -4 18 7 21 14 7 14 -6 0 -13 -4 -16 -10z"/>
<path d="M6790 6059 c0 -5 5 -7 10 -4 6 3 10 8 10 11 0 2 -4 4 -10 4 -5 0 -10
-5 -10 -11z"/>
<path d="M5515 6010 c-3 -5 -2 -10 4 -10 5 0 13 5 16 10 3 6 2 10 -4 10 -5 0
-13 -4 -16 -10z"/>
<path d="M6746 6003 c-6 -14 -5 -15 5 -6 7 7 10 15 7 18 -3 3 -9 -2 -12 -12z"/>
<path d="M6315 5480 c-8 -13 5 -13 25 0 13 8 13 10 -2 10 -9 0 -20 -4 -23 -10z"/>
<path d="M5600 5358 c0 -4 17 -8 37 -8 20 0 34 3 30 6 -9 9 -67 11 -67 2z"/>
<path d="M5500 5346 c0 -19 26 -22 36 -3 4 6 4 9 -1 5 -4 -4 -14 -3 -22 3 -10
9 -13 8 -13 -5z"/>
<path d="M5784 5187 c-8 -21 -3 -29 13 -19 8 5 9 13 3 22 -7 12 -10 12 -16 -3z"/>
<path d="M3307 3183 c-4 -3 -7 -32 -7 -64 0 -43 4 -58 16 -63 26 -10 101 -7
129 6 45 20 48 93 5 115 -26 13 -132 18 -143 6z"/>
<path d="M3304 2916 c-3 -7 -4 -38 -2 -67 l3 -54 88 0 c98 0 117 11 117 66 0
47 -40 69 -127 69 -53 0 -75 -4 -79 -14z"/>
</g>
</svg>
