<svg xmlns="http://www.w3.org/2000/svg" width="168" height="168" viewBox="0 0 168 168" fill="none">
<mask id="mask0_16_4199" style="mask-type:luminance" maskUnits="userSpaceOnUse" x="0" y="0" width="168" height="168">
<path d="M105.795 165.036C150.409 153.081 176.885 107.223 164.931 62.609C152.977 17.995 107.119 -8.48101 62.5041 3.47299C17.8901 15.427 -8.58593 61.285 3.36808 105.9C15.3231 150.514 61.1811 176.99 105.795 165.036Z" fill="white"/>
</mask>
<g mask="url(#mask0_16_4199)">
<path fill-rule="evenodd" clip-rule="evenodd" d="M64.385 85.061L82.42 65.014L107.907 73.494L75.595 39.926L64.385 85.061ZM66.317 88.938L83.633 69.446L108.073 77.639L91.047 97.069L66.317 88.938ZM66.547 93.129C75.558 96.101 84.965 99.219 92.232 101.635L110.045 81.474C106.057 97.962 102.733 111.689 99.001 126.896C96.832 124.64 94.618 122.338 92.386 120.018L92.365 119.996L92.362 119.993C83.449 110.726 74.258 101.17 66.547 93.129Z" fill="#09090B"/>
<path fill-rule="evenodd" clip-rule="evenodd" d="M75.6011 39.924L82.412 65.016L107.907 73.494L75.6011 39.924ZM83.6221 69.449L108.199 77.605L91.0351 97.073L83.6221 69.449ZM92.2241 101.637L110.045 81.474C107.179 97.661 98.9931 126.897 98.9931 126.897L92.2241 101.637Z" fill="#09090B"/>
</g>
</svg>